<svg xmlns="http://www.w3.org/2000/svg" width="67" height="70" fill="none" viewBox="0 0 67 70"><path fill="#212121" d="M66.958 33.472C66.953 14.982 51.961-.005 33.472 0S-.005 14.996 0 33.486A33.48 33.48 0 0 0 23.296 65.37q.2.063.408.063c.264 0 .523-.071.75-.205.295-.175.515-.453.619-.78l8.455-26.797a4.184 4.184 0 1 0-1.838-7.95L20.521 18.53a1.395 1.395 0 0 0-1.972 1.973l11.163 11.176a4.104 4.104 0 0 0 1.174 5.051L22.83 62.265C6.91 56.4-1.242 38.74 4.622 22.82S28.146-1.252 44.067 4.613s24.072 23.524 18.207 39.444A30.72 30.72 0 0 1 45.951 61.5l-.87-4.1a1.394 1.394 0 0 0-2.294-.751l-8.393 7.493a1.394 1.394 0 0 0 .505 2.372l10.716 3.42a1.394 1.394 0 0 0 1.791-1.619l-.855-4.022a33.37 33.37 0 0 0 20.406-30.82m-33.479-1.395a1.395 1.395 0 1 1 0 2.79 1.395 1.395 0 0 1 0-2.79m4.595 32.515 4.777-4.262 1.319 6.213z"/></svg>